<svg xmlns="http://www.w3.org/2000/svg" width="77.71" height="57.3" viewBox="0 0 77.71 57.3"><defs><style>.cls-1{fill:#8e1c33;}.cls-2{fill:#b32445;}.cls-3{fill:#5e1322;}.cls-4{fill:#ffdbab;}.cls-5{fill:#e8be87;}.cls-6{fill:#333;}.cls-10,.cls-11,.cls-7{fill:#fff;}.cls-8{fill:#ccc;}.cls-9{fill:#eb2f5a;}.cls-10{opacity:0.2;}.cls-11{opacity:0.5;}.cls-12{fill:#fff3c7;}</style></defs><g id="Layer_2" data-name="Layer 2"><g id="Layer_1-2" data-name="Layer 1"><path class="cls-1" d="M17.28,22.5v2.17c0,.2-.4.2-.57.19l-.56-1.22a2,2,0,0,1-.36-1.07V21.35c0-.16-.17-.31-.11-.33s.22-.07.29,0l1.11.92A1,1,0,0,1,17.28,22.5Z"/><path class="cls-2" d="M16.8,22.5v2.17c0,.2-.07.26-.17.12l-.74-1.15a2.21,2.21,0,0,1-.31-1.07V21.35c0-.3.09-.42.23-.28l.82.86A1,1,0,0,1,16.8,22.5Z"/><path class="cls-3" d="M60.3,22.48l10.43,6c.62-1,.19-4.08,0-6.71l-10.43-6Z"/><path class="cls-3" d="M24.24,43.51l10.43,6c.62-1,.19-4.09,0-6.71l-10.43-6Z"/><path class="cls-4" d="M68.11,15.26a175.81,175.81,0,0,0-18.68-11l-7.15-.24L23.6,13.88l-8.41,11L34.3,37.86l10-13.67,17-8.48Z"/><polygon class="cls-5" points="64.85 20.43 63.46 18.64 60.97 16.44 44 25.71 36.65 36.86 64.85 20.43"/><path d="M26.58,44.59a3.24,3.24,0,0,1,3.28-.32l2.51,1.46a3.24,3.24,0,0,1,1.35,3,10.2,10.2,0,0,1-4.61,8,3.13,3.13,0,0,1-3.44.21l.15.11-2.5-1.46a3.21,3.21,0,0,1-1.35-3A10.15,10.15,0,0,1,26.58,44.59Z"/><path class="cls-6" d="M33.72,48.69a10.2,10.2,0,0,1-4.61,8c-2.55,1.47-4.63.29-4.64-2.64a10.17,10.17,0,0,1,4.61-8C31.63,44.58,33.71,45.76,33.72,48.69Zm-4.61,6.38a7.13,7.13,0,0,0,3.22-5.58c0-2.05-1.46-2.88-3.25-1.85a7.13,7.13,0,0,0-3.22,5.58c0,2.05,1.46,2.88,3.25,1.85Z"/><path class="cls-7" d="M29.09,48.79a4.88,4.88,0,0,0-2.23,3.86c0,1.42,1,2,2.24,1.28a4.91,4.91,0,0,0,2.23-3.86C31.33,48.65,30.32,48.07,29.09,48.79Z"/><path class="cls-8" d="M32.33,49.49a7.13,7.13,0,0,1-3.22,5.58c-1.79,1-3.24.2-3.25-1.85a7.13,7.13,0,0,1,3.22-5.58C30.87,46.61,32.32,47.44,32.33,49.49ZM29.1,53.93a4.91,4.91,0,0,0,2.23-3.86c0-1.42-1-2-2.24-1.28a4.88,4.88,0,0,0-2.23,3.86c0,1.42,1,2,2.24,1.28Z"/><path d="M26.58,44.59a3.24,3.24,0,0,1,3.28-.32l2.51,1.46a3.26,3.26,0,0,0-3.29.32,10.17,10.17,0,0,0-4.61,8,3.25,3.25,0,0,0,1.35,3l-2.5-1.46a3.21,3.21,0,0,1-1.35-3A10.15,10.15,0,0,1,26.58,44.59Z"/><path d="M62.54,24.12a3.24,3.24,0,0,1,3.28-.32l2.51,1.46a3.24,3.24,0,0,1,1.35,3,10.2,10.2,0,0,1-4.61,8,3.17,3.17,0,0,1-3.44.21l.15.11-2.5-1.46a3.21,3.21,0,0,1-1.35-3A10.15,10.15,0,0,1,62.54,24.12Z"/><path class="cls-6" d="M69.68,28.22a10.2,10.2,0,0,1-4.61,8c-2.55,1.47-4.63.29-4.64-2.65a10.17,10.17,0,0,1,4.61-8C67.59,24.1,69.67,25.29,69.68,28.22ZM65.07,34.6A7.13,7.13,0,0,0,68.29,29c0-2.05-1.46-2.88-3.25-1.85a7.13,7.13,0,0,0-3.22,5.58c0,2,1.46,2.88,3.25,1.85Z"/><path class="cls-7" d="M65.05,28.32a4.88,4.88,0,0,0-2.23,3.86c0,1.42,1,2,2.24,1.28a4.91,4.91,0,0,0,2.23-3.87C67.29,28.17,66.28,27.6,65.05,28.32Z"/><path class="cls-8" d="M68.29,29a7.13,7.13,0,0,1-3.22,5.58c-1.79,1-3.24.2-3.25-1.85A7.13,7.13,0,0,1,65,27.17C66.83,26.14,68.28,27,68.29,29Zm-3.23,4.44a4.91,4.91,0,0,0,2.23-3.87c0-1.42-1-2-2.24-1.27a4.88,4.88,0,0,0-2.23,3.86c0,1.42,1,2,2.24,1.28Z"/><path d="M62.54,24.12a3.24,3.24,0,0,1,3.28-.32l2.51,1.46a3.26,3.26,0,0,0-3.29.32,10.17,10.17,0,0,0-4.61,8,3.25,3.25,0,0,0,1.35,3l-2.5-1.46a3.21,3.21,0,0,1-1.35-3A10.15,10.15,0,0,1,62.54,24.12Z"/><path class="cls-1" d="M20.89,53.65v2.49l4-1L25.2,55a5.19,5.19,0,0,1-.1-1.07,10.7,10.7,0,0,1,4.83-8.38c1.55-.89,2.92-.85,3.81-.06a3.76,3.76,0,0,1,1,2.86,6.88,6.88,0,0,1-.1,1.18l1.2-.69,5.38-3.11,20-11.53a6,6,0,0,1-.09-1.07A10.68,10.68,0,0,1,66,24.75c2.67-1.54,4.84-.29,4.84,2.8a7.73,7.73,0,0,1-.07.95l2-1.46,2.38-1.74,2-4.66.14-8v-.47l-10.2-.37L44,25.13,35.25,36.51l-13.12,11Zm29.36-26L38.13,35l6.23-8.69,5.89-3.41ZM61.78,17.36l2,2-1,.59-1.69,1v-4.1Zm-1.41,4.15-8.15,4.94-.13.08V21.84l8.28-4.77Z"/><polygon class="cls-2" points="62.67 15.37 66.28 17.75 66.49 17.89 74.31 13.35 73.88 13.34 66.61 13.07 62.67 15.37"/><polygon class="cls-5" points="62.67 15.37 66.28 17.75 73.88 13.34 66.61 13.07 62.67 15.37"/><path class="cls-9" d="M.48,41.87l1.25-6.16,20.4,11.78-1.25,6.16C13,50,5.89,46.23.48,41.87Z"/><path class="cls-1" d="M.48,41.87v2.49c5,4,12.33,7.89,20.4,11.78V53.65C12.74,49.89,5.8,46,.48,41.87Z"/><path class="cls-2" d="M14.84,24.73l-13.11,11a81.23,81.23,0,0,0,20.4,11.78l13.12-11Z"/><path class="cls-4" d="M19.51,51.36l-.19.94-2-1,.22-.93Z"/><path class="cls-4" d="M3.19,42.21,3,43.05,1.5,42l.2-.79C2.11,41.47,2.77,41.93,3.19,42.21Z"/><path class="cls-9" d="M44,25.13,23.6,13.35,14.84,24.73A96.19,96.19,0,0,0,35.25,36.51Zm-28.09-.62,7.87-10.22A130.43,130.43,0,0,0,42.93,25.34L35.06,35.57A134.68,134.68,0,0,1,15.91,24.51Z"/><path class="cls-2" d="M46.65,0l-23,13.35A112.51,112.51,0,0,0,44,25.13L67.06,11.78Q57.08,5.38,46.65,0Z"/><path class="cls-10" d="M5.88,38.31,18.3,27.72l.81.54L6.69,38.85Z"/><path class="cls-10" d="M15.82,25.9l2,1.47L5.43,38c-.78-.55-1.53-1.1-2.26-1.67Z"/><polygon class="cls-11" points="27.2 17 27.9 17.46 20.23 27.18 19.47 26.66 27.2 17"/><polygon class="cls-11" points="24.36 15.09 26.7 16.66 18.98 26.32 16.85 24.86 24.36 15.09"/><path class="cls-9" d="M51.61,21.66l0,17.46,8.37-4.84a13,13,0,0,1,5.44-10.35l-.18-4.5L60.9,16.3Zm9.56-4.15,2.67,2.19-2.63,1.6ZM52.32,22l8.27-4.78v4.44l-8.27,5Z"/><path class="cls-9" d="M36.68,36.53V47.71l14.46-8.34V21.94l-6.82,3.93Zm1.67-1.36,6.23-8.7,5.9-3.4v4.74Z"/><polygon class="cls-7" points="48.59 31.27 50.38 30.23 50.38 29.32 48.59 30.35 48.59 31.27"/><polygon class="cls-7" points="62.24 22.91 64.03 21.88 64.03 20.96 62.24 22 62.24 22.91"/><path d="M32,33.84a.24.24,0,0,0,.11-.45c-2.12-1.08-4.15-2.15-6-3.2a.23.23,0,0,0-.32.09.24.24,0,0,0,.09.33c1.88,1.05,3.92,2.13,6,3.21Z"/><path d="M23.88,29.46A.24.24,0,0,0,24,29c-1.71-1-3.35-2-4.87-3a.23.23,0,0,0-.33.07.24.24,0,0,0,.07.33c1.52,1,3.17,2,4.89,3A.27.27,0,0,0,23.88,29.46Z"/><path d="M28.77,32.06a.12.12,0,0,0,.12-.1.12.12,0,0,0-.09-.14l-3.14-.7a.12.12,0,0,0-.14.09.11.11,0,0,0,.09.14l3.14.71Z"/><path d="M22,28.19a.11.11,0,0,0,.12-.09A.12.12,0,0,0,22,28l-3.14-.7a.12.12,0,0,0-.15.09.12.12,0,0,0,.1.14l3.14.7Z"/><path class="cls-7" d="M.49,42.14C5.33,46.05,11.85,49.78,21,54l.69-.3.44.25L22,56.05l-.65.3L20.68,56C10.93,51.33,4.61,47.68.18,44.19L0,44V42.1l.48-.23Z"/><path class="cls-8" d="M.18,42.24C5,46.15,11.54,49.91,20.69,54.09l.54.25.9-.44L22,56.05l-.65.3L20.68,56C10.93,51.33,4.61,47.68.18,44.19L0,44V42.1Z"/><polygon class="cls-7" points="77.1 18.22 77.1 17.98 77.71 18.25 77.22 20.63 75.71 22.14 75.31 21.89 75.3 19.5 77.1 18.22"/><polygon class="cls-8" points="77.71 18.25 77.71 20.58 75.71 22.14 75.71 19.72 77.71 18.25"/><path class="cls-9" d="M67.06,11.78C60.38,7.54,53.58,3.59,46.65,0L56.86.37a192.7,192.7,0,0,1,20.4,11.78Z"/><path class="cls-5" d="M67.66,11.07l5.77.24A116.83,116.83,0,0,0,55.71,1.08L49.94.84A160.78,160.78,0,0,1,67.66,11.07Z"/><path class="cls-11" d="M50.64,1.23l5.63.16,1.56.76L52.22,2Z"/><path class="cls-11" d="M53.14,2.52h5.42l1,.53-5.28.1Z"/><path class="cls-4" d="M17.56,47.84a2.48,2.48,0,0,0,1,2.65,1.28,1.28,0,0,0,2-.71,2.49,2.49,0,0,0-1-2.65A1.28,1.28,0,0,0,17.56,47.84Z"/><path class="cls-7" d="M18.73,50.23a1.25,1.25,0,0,0,.66.21.89.89,0,0,0,.78-.45,1,1,0,0,0,.13-.3,2.18,2.18,0,0,0-.88-2.3,1.19,1.19,0,0,0-.65-.21,1,1,0,0,0-.92.75A2.18,2.18,0,0,0,18.73,50.23Z"/><path class="cls-4" d="M1.8,38.66a2.38,2.38,0,0,0,.89,2.54,1.2,1.2,0,0,0,1.9-.68A2.37,2.37,0,0,0,3.7,38,1.19,1.19,0,0,0,1.8,38.66Z"/><path class="cls-7" d="M2.86,40.94a1.07,1.07,0,0,0,.59.2.84.84,0,0,0,.74-.46,1.12,1.12,0,0,0,.11-.25,2.09,2.09,0,0,0-.77-2.2A1.17,1.17,0,0,0,3,38H2.93a.9.9,0,0,0-.84.72A2.05,2.05,0,0,0,2.86,40.94Z"/><path class="cls-12" d="M19.51,49.78a1.34,1.34,0,0,0,.66.21,1,1,0,0,0,.13-.3,2.18,2.18,0,0,0-.88-2.3,1.19,1.19,0,0,0-.65-.21.83.83,0,0,0-.13.3A2.19,2.19,0,0,0,19.51,49.78Z"/><path class="cls-12" d="M3.64,40.49a1.1,1.1,0,0,0,.55.19,1.12,1.12,0,0,0,.11-.25,2.09,2.09,0,0,0-.77-2.2A1.17,1.17,0,0,0,3,38a1,1,0,0,0-.12.26A2.08,2.08,0,0,0,3.64,40.49Z"/><path class="cls-3" d="M16.33,46.67a.24.24,0,0,0,.21-.13.23.23,0,0,0-.11-.3A86.89,86.89,0,0,1,5.71,40.19a.22.22,0,0,0-.25.37,86.43,86.43,0,0,0,10.77,6.09Z"/><path class="cls-3" d="M16.1,47.69a.23.23,0,0,0,.1-.44A84.78,84.78,0,0,1,5.5,41.17a.24.24,0,0,0-.32.06.23.23,0,0,0,.07.32A85.59,85.59,0,0,0,16,47.66.17.17,0,0,0,16.1,47.69Z"/><path class="cls-3" d="M15.87,48.7a.23.23,0,0,0,.2-.13.22.22,0,0,0-.11-.3A84.85,84.85,0,0,1,5.29,42.15a.23.23,0,0,0-.26.38,85.88,85.88,0,0,0,10.74,6.15Z"/><path class="cls-3" d="M15.63,49.71a.22.22,0,0,0,.21-.12.24.24,0,0,0-.11-.31A84.08,84.08,0,0,1,5.07,43.13a.22.22,0,0,0-.31.07.22.22,0,0,0,.06.31,84.88,84.88,0,0,0,10.71,6.18A.2.2,0,0,0,15.63,49.71Z"/><path class="cls-1" d="M38,35a.45.45,0,0,0-.21.43l.22,2a.47.47,0,0,0,.41.4l2,.2A.57.57,0,0,0,41,37.4l0-1.2a.66.66,0,0,0-.46-.65l-2.24-.65A.52.52,0,0,0,38,35Z"/><path class="cls-2" d="M37.71,35.49v2.17a.39.39,0,0,0,.37.39l2.13.1a.62.62,0,0,0,.65-.61l0-1.2a.64.64,0,0,0-.49-.63l-2.31-.52A.31.31,0,0,0,37.71,35.49Z"/></g></g></svg>