<svg xmlns="http://www.w3.org/2000/svg" viewBox="0 0 87.02 56.98"><defs><style>.cls-1{fill:#0a0c0e;}.cls-2{fill:#62798a;}.cls-3{fill:#333;}.cls-14,.cls-15,.cls-4{fill:#fff;}.cls-5{fill:#ccc;}.cls-6{fill:#3a4852;}.cls-7{fill:#252d34;}.cls-8{fill:#e8be87;}.cls-9{fill:#ffdbab;}.cls-10{fill:#db1a21;}.cls-11{fill:#ff363d;}.cls-12{fill:#e6e6e6;}.cls-13{fill:#b3b3b3;}.cls-14{opacity:0.5;}.cls-15{opacity:0.2;}</style></defs><g id="Layer_2" data-name="Layer 2"><g id="Layer_1-2" data-name="Layer 1"><polygon class="cls-1" points="67.36 13.65 81.27 21.68 81.27 14.59 67.36 6.56 67.36 13.65"/><polygon class="cls-1" points="25.2 38.02 39.11 46.05 39.11 38.96 15.11 36.88 25.2 38.02"/><path class="cls-2" d="M1.39,31.09l8.14-9.94L39.48,3.73l9.69,1.38L64.29,0,84,11.35l2,4.91-.22,2.93-4.49,2.49s0-.08,0-.12c0-3.12-2.54-4.2-5.66-2.39S70,25,70,28.1c0,0,0,.08,0,.11L39.08,46v-.11c0-3.13-2.54-4.2-5.66-2.4s-5.67,5.81-5.67,8.94c0,0,0,.07,0,.11l-5.16,3L2.94,44.2l-2-1.9V32.63Z"/><path d="M30.8,42.62a3.47,3.47,0,0,1,3.5-.35L37,43.83A3.44,3.44,0,0,1,38.41,47a10.8,10.8,0,0,1-4.91,8.5c-1.45.84-2.76.87-3.66.23l.16.12-2.67-1.55a3.48,3.48,0,0,1-1.44-3.16A10.8,10.8,0,0,1,30.8,42.62Z"/><path class="cls-3" d="M38.41,47a10.8,10.8,0,0,1-4.91,8.5c-2.72,1.57-4.93.31-4.94-2.81a10.8,10.8,0,0,1,4.91-8.5C36.19,42.6,38.4,43.86,38.41,47Zm-4.91,6.8a7.56,7.56,0,0,0,3.43-5.94c0-2.19-1.55-3.07-3.46-2A7.59,7.59,0,0,0,30,51.81c0,2.19,1.55,3.07,3.46,2Z"/><path class="cls-4" d="M33.48,47.09A5.24,5.24,0,0,0,31.1,51.2c0,1.51,1.08,2.12,2.39,1.36a5.24,5.24,0,0,0,2.38-4.11C35.86,46.94,34.79,46.33,33.48,47.09Z"/><path class="cls-5" d="M36.93,47.84a7.56,7.56,0,0,1-3.43,5.94c-1.91,1.1-3.45.22-3.46-2a7.59,7.59,0,0,1,3.43-5.94C35.38,44.77,36.92,45.65,36.93,47.84Zm-3.44,4.72a5.24,5.24,0,0,0,2.38-4.11c0-1.51-1.08-2.12-2.39-1.36A5.24,5.24,0,0,0,31.1,51.2c0,1.51,1.08,2.12,2.39,1.36Z"/><path d="M30.8,42.62a3.47,3.47,0,0,1,3.5-.35L37,43.83a3.47,3.47,0,0,0-3.5.34,10.8,10.8,0,0,0-4.91,8.5A3.46,3.46,0,0,0,30,55.83l-2.67-1.55a3.48,3.48,0,0,1-1.44-3.16A10.8,10.8,0,0,1,30.8,42.62Z"/><path d="M73,18.26a3.47,3.47,0,0,1,3.5-.35l2.67,1.56a3.44,3.44,0,0,1,1.44,3.15,10.8,10.8,0,0,1-4.91,8.5c-1.46.84-2.76.87-3.67.23l.17.12L69.5,29.92a3.46,3.46,0,0,1-1.44-3.16A10.8,10.8,0,0,1,73,18.26Z"/><path class="cls-3" d="M80.58,22.62a10.8,10.8,0,0,1-4.91,8.5c-2.72,1.57-4.93.31-4.94-2.81a10.8,10.8,0,0,1,4.91-8.5C78.36,18.24,80.57,19.5,80.58,22.62Zm-4.92,6.8a7.57,7.57,0,0,0,3.44-5.94c0-2.19-1.56-3.07-3.46-2a7.56,7.56,0,0,0-3.43,5.94c0,2.19,1.55,3.07,3.45,2Z"/><path class="cls-4" d="M75.64,22.73a5.25,5.25,0,0,0-2.37,4.11c0,1.51,1.08,2.12,2.39,1.36A5.24,5.24,0,0,0,78,24.09C78,22.58,77,22,75.64,22.73Z"/><path class="cls-5" d="M79.1,23.48a7.57,7.57,0,0,1-3.44,5.94c-1.9,1.1-3.44.22-3.45-2a7.56,7.56,0,0,1,3.43-5.94C77.54,20.41,79.09,21.29,79.1,23.48ZM75.66,28.2A5.24,5.24,0,0,0,78,24.09c0-1.51-1.08-2.12-2.4-1.36a5.25,5.25,0,0,0-2.37,4.11c0,1.51,1.08,2.12,2.39,1.36Z"/><path d="M73,18.26a3.47,3.47,0,0,1,3.5-.35l2.67,1.56a3.47,3.47,0,0,0-3.5.34,10.8,10.8,0,0,0-4.91,8.5,3.44,3.44,0,0,0,1.44,3.16L69.5,29.92a3.46,3.46,0,0,1-1.44-3.16A10.8,10.8,0,0,1,73,18.26Z"/><path class="cls-6" d="M1.39,31.09l8.14-9.94L39.48,3.73l9.69,1.38L64.29,0A108.19,108.19,0,0,1,84,11.35L68.83,16.46l-9.69-1.38L29.19,32.5l-8.14,9.94L20.59,44v9.67l2,1.9L2.94,44.2l-2-1.9V32.63Z"/><path class="cls-7" d="M20.59,44l.46-1.54,8.14-9.94,30-17.42,9.69,1.38L84,11.35l2,4.91-.22,2.93-4.49,2.49s0-.08,0-.12c0-3.12-2.54-4.2-5.66-2.39S70,25,70,28.1c0,0,0,.08,0,.11L39.08,46v-.11c0-3.13-2.54-4.2-5.66-2.4s-5.67,5.81-5.67,8.94c0,0,0,.07,0,.11l-5.16,3-2-1.9Z"/><polygon class="cls-2" points="68.33 17.43 58.87 16.08 50.43 20.95 50.43 38.65 68.33 28.31 68.33 17.43"/><path class="cls-6" d="M51.13,21.25v5.82l16.5-8.85a1.53,1.53,0,0,0-.29-.07l-8.7-1.24Z"/><path class="cls-2" d="M39.52,27.26,34,36.15v6.24c3.08-1.51,5.56-.52,5.9,2.34L49.9,39V21.26Z"/><polygon class="cls-6" points="34.68 35.89 39.27 33.43 39.27 28.4 39.01 28.82 34.88 35.57 34.68 35.89"/><polygon class="cls-6" points="39.89 27.74 39.89 33.09 49.2 28.11 49.2 22.37 48.94 22.52 39.89 27.74"/><polygon class="cls-6" points="25.01 40.25 31.22 36.92 35.43 30.42 34.93 30.72 30.16 33.5 25.29 39.88 25.01 40.25"/><polygon class="cls-8" points="51.13 21.25 51.13 26.85 67.34 18.15 58.64 16.91 51.13 21.25"/><polygon class="cls-8" points="34.88 35.57 39.01 33.35 39.01 28.82 34.88 35.57"/><polygon class="cls-8" points="39.89 27.74 39.89 32.87 48.94 28.02 48.94 22.52 39.89 27.74"/><polygon class="cls-8" points="25.29 39.88 30.97 36.84 34.93 30.72 30.16 33.5 25.29 39.88"/><polygon class="cls-4" points="53.52 27.72 51.13 29.1 51.13 27.98 53.52 26.6 53.52 27.72"/><polygon class="cls-4" points="37.07 36.65 34.68 38.03 34.68 36.91 37.07 35.53 37.07 36.65"/><path class="cls-2" d="M59.14,15.08l9.69,1.38C62.15,11.58,55.56,7.38,49.17,5.11L39.48,3.73A93,93,0,0,1,59.14,15.08Z"/><path class="cls-9" d="M67.75,16C60.21,10.58,54.43,7.28,49.1,5.39L41.48,4.3A93.52,93.52,0,0,1,59.25,14.82Z"/><path class="cls-2" d="M21.05,42.44l8.14-9.94C21.49,29,14.72,25.32,9.53,21.15L1.39,31.09C6.37,35.2,13.16,38.93,21.05,42.44Z"/><path class="cls-9" d="M28.06,32.77A92.46,92.46,0,0,1,9.63,22.13L2.38,31c4.44,3.54,10.49,7,18.47,10.59Z"/><path class="cls-2" d="M20.59,53.65V44A78,78,0,0,1,.93,32.63V42.3A123,123,0,0,0,20.59,53.65Z"/><polygon class="cls-9" points="19.32 50.18 16.76 48.97 16.76 50.25 19.32 51.46 19.32 50.18"/><polygon class="cls-4" points="16.25 43.26 16.25 47.33 19.89 48.9 19.89 44.82 16.25 43.26"/><polygon class="cls-10" points="16.53 43.7 16.53 47.13 19.61 48.45 19.61 45.03 17.49 44.12 16.53 43.7"/><polygon class="cls-11" points="17.49 44.12 17.49 46.62 19.61 47.53 19.61 45.03 17.49 44.12"/><polygon class="cls-4" points="1.63 34.57 1.63 38.36 4.6 40.48 4.6 36.69 1.63 34.57"/><polygon class="cls-10" points="1.87 35.07 1.87 38.2 4.35 39.98 4.35 36.85 2.73 35.66 1.87 35.07"/><polygon class="cls-11" points="2.73 35.66 2.73 37.88 4.35 39.06 4.35 36.85 2.73 35.66"/><polygon class="cls-9" points="3.89 41.45 1.87 40.04 1.87 41.33 3.88 42.73 3.89 41.45"/><polygon class="cls-4" points="7.48 42.4 12 45.01 12 47.51 7.48 44.9 7.48 42.4"/><polygon class="cls-12" points="82.07 21.31 82.71 21.68 86.38 18.83 87.02 16.51 85.71 15.61 85.97 16.38 82.07 18.62 82.07 21.31"/><polygon class="cls-13" points="82.71 21.68 87.02 19.2 87.02 16.51 82.71 18.99 82.71 21.68"/><polygon class="cls-12" points="20.25 56.55 24.56 54.06 25.2 51.74 24.56 51.37 20.25 53.86 20.25 56.55"/><path class="cls-12" d="M21.1,56.55.42,44.71,0,42.4l.93-.51v.41A122.12,122.12,0,0,0,21.1,53.86Z"/><path class="cls-13" d="M20.78,57C12.52,53,5.18,49,0,45.09V42.4c5.37,4.1,12.62,8,20.78,11.89Z"/><polygon class="cls-13" points="20.78 56.98 25.2 54.43 25.2 51.74 20.78 54.29 20.78 56.98"/><path d="M52.49,6.35a.2.2,0,0,0-.1.38c1.75,1,3.43,1.93,5,2.87a.22.22,0,0,0,.28-.07.22.22,0,0,0-.07-.28c-1.56-.94-3.24-1.91-5-2.88Z"/><path d="M59.19,10.27a.22.22,0,0,0-.18.1.21.21,0,0,0,.06.28c1.42.89,2.77,1.78,4,2.65a.19.19,0,0,0,.28-.05.21.21,0,0,0,0-.28c-1.25-.87-2.61-1.77-4-2.67Z"/><path d="M55.14,7.94A.1.1,0,0,0,55,8a.09.09,0,0,0,.07.12l2.63.68a.09.09,0,0,0,.12-.07.1.1,0,0,0-.07-.12L55.16,8Z"/><path d="M60.72,11.39a.11.11,0,0,0-.1.08.1.1,0,0,0,.08.12l2.62.68a.09.09,0,0,0,.12-.07.09.09,0,0,0-.07-.12l-2.62-.68Z"/><path class="cls-14" d="M11.92,24.18l.95.61L6.66,33.57,5.75,33Z"/><path class="cls-14" d="M9.85,22.74c.63.46,1,.73,1.66,1.17l-6.2,8.75L3.44,31.34Z"/><polygon class="cls-15" points="67.17 1.61 64.92 0.55 50.92 5.49 53.31 6.56 67.17 1.61"/><polygon class="cls-15" points="68.38 2.22 67.55 1.82 53.84 6.73 54.73 7.18 68.38 2.22"/><path d="M67.74,17.63,68,19.89a.85.85,0,0,0,.13.49l.6.86c.2.07.41-.1.41-.43V19.67a1.58,1.58,0,0,0-.16-.75l-.78-1.26C68.13,17.55,67.84,17.59,67.74,17.63Z"/><path class="cls-2" d="M67.74,17.63,68,19.89a.85.85,0,0,0,.13.49l.6.86c.2.07.41-.1.41-.43V19.67a1.58,1.58,0,0,0-.16-.75l-.78-1.26C68.13,17.55,67.84,17.59,67.74,17.63Z"/><path class="cls-7" d="M67.68,17.83v2.06a.77.77,0,0,0,.14.49l.83.8c.14.13.25,0,.26-.36V19.68a1.48,1.48,0,0,0-.19-.75l-.9-1.26C67.75,17.56,67.68,17.64,67.68,17.83Z"/><path class="cls-12" d="M68.74,21.11a.46.46,0,0,0,.06-.29V19.68a1.38,1.38,0,0,0-.17-.69l-.85-1.19v2.09a.71.71,0,0,0,.11.42Z"/><path class="cls-4" d="M68.55,19.06a1.13,1.13,0,0,1,.15.55l-.52.82-.21-.2a.69.69,0,0,1-.07-.3l.62-.93Z"/><path class="cls-4" d="M68.28,18.67l.14.2-.53.79v-.4Z"/></g></g></svg>