<svg xmlns="http://www.w3.org/2000/svg" width="79.59" height="56.69" viewBox="0 0 79.59 56.69"><defs><style>.cls-1{fill:#005e8e;}.cls-2{fill:#007db3;}.cls-3{fill:#003e5e;}.cls-4{fill:#ffdbab;}.cls-5{fill:#e8be87;}.cls-6{fill:#333;}.cls-11,.cls-12,.cls-7{fill:#fff;}.cls-8{fill:#ccc;}.cls-9{fill:#00a3eb;}.cls-10{fill:#fff3c7;}.cls-11{opacity:0.2;}.cls-12{opacity:0.5;}</style></defs><g id="Layer_2" data-name="Layer 2"><g id="Layer_1-2" data-name="Layer 1"><path class="cls-1" d="M60.33,21.45v2.16c0,.21.4.2.57.2l.55-1.22a1.88,1.88,0,0,0,.36-1.07l0-1.22c0-.16.16-.31.1-.34s-.21-.07-.29,0l-1.1.91A.9.9,0,0,0,60.33,21.45Z"/><path class="cls-2" d="M60.8,21.45v2.16c0,.21.08.26.17.13l.75-1.15a2.21,2.21,0,0,0,.3-1.07V20.3c0-.3-.09-.42-.22-.28l-.83.85A1,1,0,0,0,60.8,21.45Z"/><path class="cls-3" d="M17.42,21.67,7,27.69c-.63-1-.19-4.08,0-6.71l10.43-6Z"/><path class="cls-3" d="M53.47,42.7,43,48.72c-.62-1-.19-4.09,0-6.71l10.43-6Z"/><path class="cls-4" d="M9.61,14.45a174.75,174.75,0,0,1,18.67-11l7.15-.24,18.69,9.83,8.4,11.05L43.42,37.05l-10-13.67-17-8.48Z"/><polygon class="cls-5" points="9.17 17.47 9.61 15.63 16.75 15.63 33.71 24.9 41.06 36.05 9.17 17.47"/><path d="M50.94,43.77a3.26,3.26,0,0,0-3.29-.32L45.14,44.9a3.23,3.23,0,0,0-1.34,3,10.13,10.13,0,0,0,4.6,8,3.16,3.16,0,0,0,3.44.22l-.15.1,2.5-1.45a3.23,3.23,0,0,0,1.35-3A10.13,10.13,0,0,0,50.94,43.77Z"/><path class="cls-6" d="M48.43,45.22a10.17,10.17,0,0,1,4.61,8c0,2.93-2.09,4.11-4.64,2.64a10.13,10.13,0,0,1-4.6-8C43.8,44.93,45.88,43.75,48.43,45.22Zm0,9c1.78,1,3.23.21,3.24-1.84a7.13,7.13,0,0,0-3.22-5.58c-1.79-1-3.24-.21-3.25,1.85a7.09,7.09,0,0,0,3.23,5.57Z"/><path class="cls-7" d="M48.42,48a4.88,4.88,0,0,1,2.23,3.86c0,1.42-1,2-2.24,1.28a4.9,4.9,0,0,1-2.23-3.86C46.18,47.82,47.19,47.25,48.42,48Z"/><path class="cls-8" d="M48.43,46.82a7.13,7.13,0,0,1,3.22,5.58c0,2.05-1.46,2.87-3.24,1.84a7.09,7.09,0,0,1-3.23-5.57C45.19,46.61,46.64,45.79,48.43,46.82Zm0,6.28c1.23.71,2.24.14,2.24-1.28A4.88,4.88,0,0,0,48.42,48c-1.23-.71-2.24-.14-2.24,1.28a4.9,4.9,0,0,0,2.23,3.86Z"/><path d="M50.94,43.77a3.26,3.26,0,0,0-3.29-.32L45.14,44.9a3.26,3.26,0,0,1,3.29.32,10.17,10.17,0,0,1,4.61,8,3.23,3.23,0,0,1-1.35,3l2.5-1.45a3.23,3.23,0,0,0,1.35-3A10.13,10.13,0,0,0,50.94,43.77Z"/><path d="M15,23.16a3.26,3.26,0,0,0-3.29-.32L9.18,24.3a3.2,3.2,0,0,0-1.35,3,10.16,10.16,0,0,0,4.6,8,3.13,3.13,0,0,0,3.44.21l-.15.11,2.5-1.46a3.21,3.21,0,0,0,1.35-3A10.16,10.16,0,0,0,15,23.16Z"/><path class="cls-6" d="M12.46,24.62a10.12,10.12,0,0,1,4.61,8c0,2.93-2.08,4.11-4.64,2.64a10.16,10.16,0,0,1-4.6-8C7.84,24.33,9.91,23.15,12.46,24.62Zm0,9c1.78,1,3.23.2,3.24-1.85a7.14,7.14,0,0,0-3.22-5.58c-1.79-1-3.24-.2-3.24,1.85a7.08,7.08,0,0,0,3.22,5.58Z"/><path class="cls-7" d="M12.46,27.36a4.89,4.89,0,0,1,2.22,3.86c0,1.42-1,2-2.24,1.28a5,5,0,0,1-2.23-3.86C10.22,27.22,11.22,26.65,12.46,27.36Z"/><path class="cls-8" d="M12.46,26.21a7.14,7.14,0,0,1,3.22,5.58c0,2.05-1.46,2.88-3.24,1.85a7.08,7.08,0,0,1-3.22-5.58C9.22,26,10.67,25.18,12.46,26.21Zm0,6.29c1.24.71,2.24.14,2.24-1.28a4.89,4.89,0,0,0-2.22-3.86c-1.24-.71-2.24-.14-2.25,1.28a5,5,0,0,0,2.23,3.86Z"/><path d="M15,23.16a3.26,3.26,0,0,0-3.29-.32L9.18,24.3a3.24,3.24,0,0,1,3.28.32,10.12,10.12,0,0,1,4.61,8,3.25,3.25,0,0,1-1.35,3l2.5-1.46a3.21,3.21,0,0,0,1.35-3A10.16,10.16,0,0,0,15,23.16Z"/><path class="cls-1" d="M57.46,47.83l-15-12.13L33.71,24.32l-17-9.79-8.88.37L.64,11.78l0,8,2,4.67L7,27.69a6.22,6.22,0,0,1-.08-1c0-3.08,2.17-4.33,4.84-2.79a10.69,10.69,0,0,1,4.84,8.38,6,6,0,0,1-.1,1.07L43,48.72a8.07,8.07,0,0,1-.1-1.19c0-3.08,2.17-4.33,4.84-2.79a10.68,10.68,0,0,1,4.83,8.38,5.93,5.93,0,0,1-.09,1.07l.27.16,5.92,2.12V54ZM16.55,20.21l-4.9-3v-.93l4.9-.2Zm9.07,5.51-8.27-5V16.26L25.62,21Zm1.84,1.11V22.09l5.89,3.41,6.23,8.69Z"/><path class="cls-9" d="M79.11,42.2l-1.25-6.15L57.46,47.83,58.71,54C66.65,50.36,73.71,46.56,79.11,42.2Z"/><path class="cls-1" d="M79.11,42.2v2.49c-5,4-12.32,7.89-20.4,11.78V54C66.85,50.22,73.79,46.34,79.11,42.2Z"/><path class="cls-2" d="M62.87,23.92l15,12.13a81.66,81.66,0,0,1-20.4,11.78l-15-12.13Z"/><path class="cls-4" d="M59.36,51.57c1-.49,2.11-1,3.17-1.54l.22.94c-1.1.54-2.15,1.05-3.2,1.54Z"/><path class="cls-7" d="M62.39,49.57c-.92.45-1.85.91-2.8,1.36a.68.68,0,0,1-1-.47v-.05l-.37-1.85a.67.67,0,0,1,.39-.75c.89-.38,1.77-.77,2.63-1.16l.12-.06a.67.67,0,0,1,.94.46l.41,1.77A.67.67,0,0,1,62.39,49.57Z"/><path class="cls-3" d="M63.26,46.78A86.65,86.65,0,0,0,74,40.71l.64,2.95A105.26,105.26,0,0,1,64,49.82Z"/><path class="cls-1" d="M63.82,47l.47,2.07L64.6,49l-.47-2.06Z"/><path class="cls-1" d="M64.62,46.63l.47,2.07.31-.17-.47-2.05Z"/><path class="cls-1" d="M65.42,46.22l.47,2.06.31-.17-.47-2Z"/><path class="cls-1" d="M66.21,45.81l.46,2,.31-.17-.46-2Z"/><path class="cls-1" d="M67,45.4l.46,2,.31-.18-.46-2Z"/><path class="cls-1" d="M67.76,45l.45,2,.31-.18-.46-2Z"/><path class="cls-1" d="M68.51,44.58l.45,2,.31-.18-.45-2Z"/><path class="cls-1" d="M69.25,44.17l.44,2L70,46l-.44-2Z"/><path class="cls-1" d="M70,43.76l.43,2,.31-.19-.44-2Z"/><path class="cls-1" d="M70.69,43.34l.43,2,.31-.19-.43-2Z"/><path class="cls-1" d="M71.39,42.93l.42,2,.32-.19-.44-2Z"/><path class="cls-1" d="M72.07,42.52l.42,2,.31-.2-.43-2Z"/><path class="cls-1" d="M72.74,42.1l.41,2a3.28,3.28,0,0,0,.31-.2l-.42-2Z"/><path class="cls-1" d="M73.69,41.49l-.3.2.41,2,.31-.2Z"/><path class="cls-4" d="M75.85,42.43c.76-.51,1.49-1,2.18-1.52l.17.81c-.69.51-1.41,1-2.16,1.57Z"/><path class="cls-7" d="M78,40.33c-.61.45-1.23.88-1.87,1.32a.67.67,0,0,1-1-.41v-.07l-.35-1.63a.67.67,0,0,1,.27-.69c.62-.45,1.24-.9,1.83-1.36a.68.68,0,0,1,1.07.4l.36,1.77A.67.67,0,0,1,78,40.33Z"/><path class="cls-10" d="M61.31,49.1l-2.68,1.31-.37-1.85a.67.67,0,0,1,.39-.75c.89-.38,1.77-.77,2.63-1.16l.39,1.7A.67.67,0,0,1,61.31,49.1Z"/><path class="cls-10" d="M76.93,39.87c-.6.43-1.21.87-1.84,1.3l-.35-1.63a.67.67,0,0,1,.27-.69c.62-.45,1.24-.9,1.83-1.36l.35,1.7A.69.69,0,0,1,76.93,39.87Z"/><path class="cls-9" d="M42.46,35.7A95.94,95.94,0,0,0,62.87,23.92L54.12,12.54,33.71,24.32Zm.19-.94L34.78,24.53a130.43,130.43,0,0,0,19.15-11L61.8,23.7A134.13,134.13,0,0,1,42.65,34.76Z"/><path class="cls-2" d="M37.15,2.75l17,9.79A112.62,112.62,0,0,1,33.71,24.32l-17-9.79Q26.71,8.13,37.15,2.75Z"/><path class="cls-9" d="M16.75,14.53q10-6.37,20.4-11.78l-8.87.36A192.94,192.94,0,0,0,7.87,14.9Zm-.21-.72-5.77.25A116.37,116.37,0,0,1,28.48,3.83l5.78-.24A161.37,161.37,0,0,0,16.54,13.81Z"/><path class="cls-11" d="M73.71,38.64,59.41,26.91l-.81.53L72.9,39.19Z"/><path class="cls-11" d="M61.89,25.09l-2,1.47L74.16,38.33c.78-.55,1.54-1.11,2.26-1.68Z"/><polygon class="cls-12" points="50.51 16.18 49.81 16.65 57.48 26.37 58.24 25.85 50.51 16.18"/><polygon class="cls-12" points="53.36 14.28 51.01 15.85 58.73 25.51 60.86 24.05 53.36 14.28"/><path class="cls-12" d="M33.55,4l-5.62.15-1.57.77L32,4.79C32.5,4.52,33,4.24,33.55,4Z"/><path class="cls-12" d="M31.06,5.26H25.63l-1,.54,5.29.09Z"/><path class="cls-2" d="M21,0l7.24,3.11A192.81,192.81,0,0,0,7.87,14.9L.64,11.78Z"/><path class="cls-9" d="M16.81,15.49l-5.76.24v1.8l1.28,5.59a13,13,0,0,1,5.44,10.35l8.37,4.84,0-17.46Zm-.49,4.89-4.64-2.82V16.47l4.65-.2Zm9.07,5.5-8.27-5V16.42l8.27,4.78Z"/><path class="cls-9" d="M33.39,25.06l-6.82-3.93V38.56L41,46.9V35.72ZM27.23,27V22.26l5.9,3.4,6.23,8.7Z"/><polygon class="cls-7" points="29.12 30.45 27.33 29.42 27.33 28.51 29.12 29.54 29.12 30.45"/><polygon class="cls-7" points="14.37 21.46 12.59 20.43 12.59 19.52 14.37 20.55 14.37 21.46"/><path d="M45.73,33a.23.23,0,0,1-.21-.13.24.24,0,0,1,.1-.32c2.12-1.08,4.15-2.15,6-3.2a.23.23,0,0,1,.32.09.24.24,0,0,1-.09.33C50,30.85,48,31.93,45.84,33Z"/><path d="M53.83,28.65a.25.25,0,0,1-.21-.12.26.26,0,0,1,.09-.33c1.72-1,3.35-2,4.87-3a.23.23,0,0,1,.33.07.24.24,0,0,1-.07.33c-1.52,1-3.17,2-4.89,3Z"/><path d="M48.94,31.25a.12.12,0,0,1-.12-.1.13.13,0,0,1,.09-.14l3.14-.7a.13.13,0,0,1,.15.09.12.12,0,0,1-.1.14L49,31.25Z"/><path d="M55.7,27.38a.11.11,0,0,1-.12-.09.12.12,0,0,1,.09-.14l3.14-.7a.12.12,0,0,1,.15.09.12.12,0,0,1-.09.14l-3.15.7Z"/><path class="cls-7" d="M79.11,42.47c-4.85,3.91-11.37,7.64-20.51,11.81l-.7-.3-.44.25.12,2.16.65.3.69-.33C68.66,51.66,75,48,79.41,44.52l.18-.14v-2l-.48-.23Z"/><path class="cls-8" d="M79.41,42.57c-4.84,3.91-11.35,7.68-20.5,11.85l-.55.25-.9-.44.12,2.16.65.3.69-.33C68.66,51.66,75,48,79.41,44.52l.18-.14v-2Z"/><polygon class="cls-7" points="0.61 17.41 0.61 17.17 0 17.43 0.49 19.82 2 21.32 2.4 21.08 2.41 18.69 0.61 17.41"/><polygon class="cls-8" points="0 17.43 0 19.77 2 21.32 2 18.91 0 17.43"/><path class="cls-1" d="M39.65,33.9a.44.44,0,0,1,.21.43l-.22,2a.45.45,0,0,1-.4.4l-2,.21a.58.58,0,0,1-.62-.58l0-1.2A.67.67,0,0,1,37,34.5l2.25-.65A.42.42,0,0,1,39.65,33.9Z"/><path class="cls-2" d="M39.89,34.44v2.17a.38.38,0,0,1-.37.38l-2.12.11a.62.62,0,0,1-.65-.61l0-1.21a.62.62,0,0,1,.48-.62l2.31-.52A.31.31,0,0,1,39.89,34.44Z"/></g></g></svg>