<svg xmlns="http://www.w3.org/2000/svg" viewBox="0 0 100.74 73.04"><defs><style>.cls-1{fill:#3a4852;}.cls-2{fill:#ccc;}.cls-3{fill:#333;}.cls-10,.cls-4,.cls-8{fill:#fff;}.cls-5{fill:#e6e6e6;}.cls-6{fill:#db1a21;}.cls-7{fill:#ff363d;}.cls-8{opacity:0.8;}.cls-9{fill:#1a1a1a;}.cls-10,.cls-11{opacity:0.3;}.cls-11,.cls-12{fill:#666;}.cls-13{fill:#e8be87;}.cls-14{fill:#4d4d4d;}.cls-15{fill:#999;}</style></defs><g id="Layer_2" data-name="Layer 2"><g id="Layer_1-2" data-name="Layer 1"><polygon class="cls-1" points="17.58 45.18 45.04 61.03 45.04 52.29 17.58 36.44 17.58 45.18"/><polygon class="cls-1" points="69.5 15.21 96.96 31.05 96.96 22.31 69.5 6.46 69.5 15.21"/><path class="cls-2" d="M.4,35.82a8.61,8.61,0,0,1,4.14-6.45L53.2,1.27C55.56-.09,57.8-.37,59.36.49l9.32,5.42,6,0a1.13,1.13,0,0,1,.67.2A194.41,194.41,0,0,1,99.43,20a1.11,1.11,0,0,1,.55.61,15.79,15.79,0,0,1,.37,8.45l-3.39,2c-.09-3.18-2.74-4.25-6-2.38s-5.9,6-6,9.28L45,61c-.09-3.17-2.74-4.24-6-2.37s-5.9,6-6,9.28L24.23,73,0,59.06Z"/><path d="M36.27,57.82a3.52,3.52,0,0,1,3.54-.35L42.5,59A3.45,3.45,0,0,1,44,62.23a10.91,10.91,0,0,1-5,8.58c-1.46.85-2.78.87-3.7.23a1.77,1.77,0,0,0,.17.12l-2.7-1.57a3.5,3.5,0,0,1-1.45-3.19A10.91,10.91,0,0,1,36.27,57.82Z"/><path class="cls-3" d="M44,62.23a10.91,10.91,0,0,1-5,8.58c-2.74,1.59-5,.32-5-2.84a10.94,10.94,0,0,1,5-8.59C41.71,57.8,43.94,59.07,44,62.23Zm-5,6.86a7.65,7.65,0,0,0,3.47-6c0-2.21-1.57-3.1-3.49-2a7.67,7.67,0,0,0-3.47,6c0,2.2,1.57,3.09,3.49,2Z"/><path class="cls-4" d="M39,62.33a5.31,5.31,0,0,0-2.4,4.16c0,1.52,1.09,2.14,2.42,1.37a5.29,5.29,0,0,0,2.4-4.15C41.38,62.18,40.3,61.56,39,62.33Z"/><path class="cls-2" d="M42.46,63.09a7.65,7.65,0,0,1-3.47,6c-1.92,1.11-3.48.22-3.49-2a7.67,7.67,0,0,1,3.47-6C40.89,60,42.45,60.88,42.46,63.09ZM39,67.86a5.29,5.29,0,0,0,2.4-4.15c0-1.53-1.09-2.15-2.42-1.38a5.31,5.31,0,0,0-2.4,4.16c0,1.52,1.09,2.14,2.42,1.37Z"/><path d="M36.27,57.82a3.52,3.52,0,0,1,3.54-.35L42.5,59a3.52,3.52,0,0,0-3.54.34A10.94,10.94,0,0,0,34,68a3.46,3.46,0,0,0,1.45,3.19l-2.7-1.57a3.5,3.5,0,0,1-1.45-3.19A10.91,10.91,0,0,1,36.27,57.82Z"/><path d="M88.19,27.94a3.52,3.52,0,0,1,3.54-.35l2.69,1.57a3.47,3.47,0,0,1,1.45,3.19,10.91,10.91,0,0,1-5,8.58c-1.47.85-2.78.88-3.7.24l.17.11-2.7-1.57a3.49,3.49,0,0,1-1.45-3.19A10.92,10.92,0,0,1,88.19,27.94Z"/><path class="cls-3" d="M95.87,32.35a10.91,10.91,0,0,1-5,8.58c-2.74,1.59-5,.32-5-2.84a10.92,10.92,0,0,1,4.95-8.58C93.63,27.92,95.86,29.19,95.87,32.35Zm-5,6.86a7.64,7.64,0,0,0,3.47-6c0-2.21-1.57-3.1-3.49-2a7.67,7.67,0,0,0-3.47,6c0,2.2,1.57,3.09,3.49,2Z"/><path class="cls-4" d="M90.89,32.45a5.31,5.31,0,0,0-2.4,4.16c0,1.53,1.09,2.14,2.42,1.38a5.31,5.31,0,0,0,2.4-4.16C93.3,32.3,92.22,31.69,90.89,32.45Z"/><path class="cls-2" d="M94.38,33.21a7.64,7.64,0,0,1-3.47,6c-1.92,1.11-3.48.22-3.49-2a7.67,7.67,0,0,1,3.47-6C92.81,30.11,94.37,31,94.38,33.21ZM90.91,38a5.31,5.31,0,0,0,2.4-4.16c0-1.53-1.09-2.14-2.42-1.38a5.31,5.31,0,0,0-2.4,4.16c0,1.53,1.09,2.14,2.42,1.38Z"/><path d="M88.19,27.94a3.52,3.52,0,0,1,3.54-.35l2.69,1.57a3.5,3.5,0,0,0-3.54.35,10.92,10.92,0,0,0-4.95,8.58,3.46,3.46,0,0,0,1.45,3.19l-2.7-1.57a3.49,3.49,0,0,1-1.45-3.19A10.92,10.92,0,0,1,88.19,27.94Z"/><path class="cls-5" d="M0,59.06,24.23,73l.4-23.23a8.61,8.61,0,0,1,4.14-6.45l48.66-28.1c2.5-1.44,4.86-1.67,6.42-.63l7.84,5.26,6.91,0a217.52,217.52,0,0,0-24.29-14l-5.63,0L59.36.49c-1.56-.86-3.8-.58-6.16.78L4.54,29.37A8.57,8.57,0,0,0,.41,35.82Z"/><path class="cls-1" d="M74.31,5.94a217.52,217.52,0,0,1,24.29,14h.33a1.06,1.06,0,0,1,.48.12,191.6,191.6,0,0,0-24-13.9A1.13,1.13,0,0,0,74.7,6Z"/><path class="cls-2" d="M73.9,13.83,26.54,41.18a1.17,1.17,0,0,1-1,0,.32.32,0,0,1,0-.6L72.87,13.24a1.1,1.1,0,0,1,1,0A.31.31,0,0,1,73.9,13.83Z"/><path class="cls-2" d="M55.68,3.91,8.32,31.25a1.17,1.17,0,0,1-1,0,.31.31,0,0,1,0-.59L54.65,3.31a1.17,1.17,0,0,1,1,0C56,3.47,56,3.74,55.68,3.91Z"/><path class="cls-6" d="M20.06,67.19v2l3.71,2.14,0-1.09.05-2.53-2.31-1.33a.82.82,0,0,0-.26-.1.85.85,0,0,0-.23,0A1,1,0,0,0,20.06,67.19Z"/><path class="cls-6" d="M.48,57.85l3.46,2V57.53a2.35,2.35,0,0,0-1.17-2L1.6,54.84.54,54.22Z"/><path class="cls-7" d="M21.14,66.71v2l2.65,1.53.05-2.53-2.31-1.33a.82.82,0,0,0-.26-.1A.89.89,0,0,0,21.14,66.71Z"/><path class="cls-7" d="M1.56,57.37l2.38,1.37V57.53a2.35,2.35,0,0,0-1.17-2L1.6,54.84Z"/><path class="cls-8" d="M23.22,48.92l-.3,17.14L22,65.53a1.89,1.89,0,0,0-.95-.26,1.92,1.92,0,0,0-1.93,1.92v.33l-6.89-4v-21Z"/><polygon class="cls-9" points="12.94 43.8 12.94 51.43 22.37 56.88 22.38 56.47 22.5 49.33 13.24 43.97 12.94 43.8"/><path class="cls-8" d="M1.79,36.55l10,5.76v21l-6.89-4V57.53a3.31,3.31,0,0,0-1.64-2.84l-1.75-1Z"/><polygon class="cls-9" points="2.35 45.31 11.06 50.35 11.06 42.72 2.77 37.93 2.48 37.77 2.35 45.31"/><polygon class="cls-1" points="13.24 43.97 13.24 51.19 22.38 56.47 22.5 49.33 13.24 43.97"/><polygon class="cls-1" points="2.64 45.08 11.06 49.94 11.06 42.72 2.77 37.93 2.64 45.08"/><polygon class="cls-10" points="4.84 39.41 5.49 39.78 5.33 46.36 4.67 45.98 4.84 39.41"/><polygon class="cls-10" points="3.32 38.52 4.49 39.2 4.34 45.79 3.18 45.12 3.32 38.52"/><polygon class="cls-1" points="15.8 56.48 13.24 54.99 13.24 53.74 15.8 55.22 15.8 56.48"/><polygon class="cls-1" points="10.68 53.59 8.11 52.11 8.11 50.86 10.68 52.34 10.68 53.59"/><path class="cls-11" d="M91.69,19.89c-8.18-5.44-15.19-10.1-23-14l5.63,0a220.28,220.28,0,0,1,24.29,14Z"/><path class="cls-2" d="M24.63,49.81a8.61,8.61,0,0,1,4.14-6.45l48.66-28.1c2.5-1.44,4.86-1.67,6.42-.62l7.85,5.25,6.92,0L96.54,24.8v4.48c-.87-1.72-3-2.06-5.56-.6-3.25,1.88-5.9,6-6,9.28L45,61c-.09-3.17-2.74-4.24-6-2.37s-5.9,6-6,9.28L24.23,73Z"/><path class="cls-1" d="M98.62,19.93h.31a1.14,1.14,0,0,1,.49.11,1,1,0,0,1,.56.6,15.79,15.79,0,0,1,.37,8.45l-3.39,2a4.13,4.13,0,0,0-.42-1.78V24.8Z"/><path class="cls-8" d="M83.14,15.62l-9.47,5.47a.47.47,0,0,0-.22.35V43.57c0,.13.1.17.22.1l10.38-6a.45.45,0,0,0,.21-.31,14.6,14.6,0,0,1,3.87-7.24.4.4,0,0,0,.13-.27V19a.13.13,0,0,0-.05-.11l-4.9-3.28A.15.15,0,0,0,83.14,15.62Z"/><path class="cls-8" d="M54.59,32.05a.47.47,0,0,0-.22.35V54.59c0,.12.1.16.22.09L71,45.2a.45.45,0,0,0,.22-.35V22.67c0-.13-.1-.17-.22-.1Z"/><path class="cls-12" d="M74.12,21.72v7.77c0,.12.09.16.22.09l13-7.52a.47.47,0,0,0,.22-.36V19.62a.13.13,0,0,0,0-.11L83,16.46a.13.13,0,0,0-.12,0h-.05l-8.48,4.9A.44.44,0,0,0,74.12,21.72Z"/><path class="cls-9" d="M26,57.14v.13c0,.13.09.17.22.1l26.5-15.3a.47.47,0,0,0,.22-.35V33.9c0-.12-.1-.16-.22-.09l-.13.07L26.34,49a.47.47,0,0,0-.22.35Z"/><path class="cls-12" d="M55,32.68V40.5c0,.13.1.17.22.1l15.08-8.71a.46.46,0,0,0,.23-.36V23.72c0-.13-.1-.17-.23-.1l-.13.08L55.26,32.33A.47.47,0,0,0,55,32.68Z"/><path class="cls-13" d="M74.12,21.72v7.63L87,21.9a.47.47,0,0,0,.22-.35V19.46a.16.16,0,0,0,0-.11l-4.33-2.89h-.05l-8.48,4.9A.44.44,0,0,0,74.12,21.72Z"/><path class="cls-1" d="M26,57.14,52.35,41.91a.44.44,0,0,0,.23-.35V33.88L26.34,49a.47.47,0,0,0-.22.35Z"/><path class="cls-13" d="M55,32.68v7.69L70,31.73a.47.47,0,0,0,.22-.35V23.7L55.26,32.33A.47.47,0,0,0,55,32.68Z"/><polygon class="cls-1" points="67.83 35.8 70.4 34.32 70.4 33.07 67.83 34.55 67.83 35.8"/><polygon class="cls-1" points="74.23 32.08 76.8 30.6 76.8 29.35 74.23 30.83 74.23 32.08"/><path class="cls-1" d="M88.7,19.39,89,22.26a1.1,1.1,0,0,0,.16.62L90,24c.24.08.51-.14.52-.56V22a2.13,2.13,0,0,0-.21-1l-1-1.59C89.2,19.29,88.83,19.34,88.7,19.39Z"/><path class="cls-14" d="M88.7,19.39,89,22.26a1.1,1.1,0,0,0,.16.62L90,24c.24.08.51-.14.52-.56V22a2.13,2.13,0,0,0-.21-1l-1-1.59C89.2,19.29,88.83,19.34,88.7,19.39Z"/><path class="cls-15" d="M88.62,19.65v2.61a1,1,0,0,0,.19.62l1,1c.17.16.32,0,.32-.46V22A1.69,1.69,0,0,0,90,21l-1.14-1.6C88.72,19.31,88.62,19.41,88.62,19.65Z"/><path class="cls-5" d="M90,23.81a.72.72,0,0,0,.07-.37l0-1.45a1.69,1.69,0,0,0-.22-.87l-1.08-1.51v2.65a.85.85,0,0,0,.14.52Z"/><path class="cls-4" d="M89.73,21.2a1.58,1.58,0,0,1,.19.7l-.66,1L89,22.69a.76.76,0,0,1-.1-.38l.78-1.18Z"/><path class="cls-4" d="M89.39,20.71l.17.25-.66,1v-.5Z"/></g></g></svg>