<svg xmlns="http://www.w3.org/2000/svg" viewBox="0 0 113.34 69.28"><defs><style>.cls-1{fill:#3a4852;}.cls-2{fill:#b3b3b3;}.cls-3{fill:#62798a;}.cls-4{fill:#fff;}.cls-5{fill:#e6e6e6;}</style></defs><g id="Layer_2" data-name="Layer 2"><g id="Layer_1-2" data-name="Layer 1"><path class="cls-1" d="M99.34,44.24C92,40,92,33.12,99.34,28.89l14-8.08v-3.5L99,12.53l-.35-.2L84,3.85,70,11.93c-7.33,4.23-19.26,4.23-26.58,0l-14-8.08L14.69,12.33l-.35.2L0,17.31v3.5l14,8.08c7.33,4.23,7.33,11.12,0,15.35L0,48.82v3.5l.7.4,28,16.16.7.4,14-8.08C50.7,57,62.63,57,70,61.2l14,8.08.7-.4,28-16.16.7-.4v-3.5Z"/><path class="cls-2" d="M14.69,25,.7,16.91,0,17v.35l14,8.08c7.33,4.23,7.33,11.12,0,15.35L0,48.47v.35l.7.4,14-8.07C22.42,36.68,22.42,29.45,14.69,25Z"/><path class="cls-2" d="M84,.35,70,8.43c-7.33,4.23-19.26,4.23-26.58,0L29.38.35l-.7.05V.75l14,8.08c7.72,4.46,20.25,4.46,28,0l14-8.08V.4Z"/><path class="cls-2" d="M99.34,25.39l14-8.08V17l-.7-.05L98.64,25c-7.72,4.46-7.72,11.69,0,16.16l14,8.07.7-.4v-.35l-14-7.73C92,36.51,92,29.62,99.34,25.39Z"/><path class="cls-3" d="M98.64,25l14-8.08L84.65.75l-14,8.08c-7.73,4.46-20.26,4.46-28,0L28.68.75.7,16.91l14,8.08c7.73,4.46,7.73,11.69,0,16.16L.7,49.22l28,16.16,14-8.08c7.72-4.46,20.25-4.46,28,0l13.84,8,.15.08,28-16.16-14-8.07C90.92,36.68,90.92,29.45,98.64,25Z"/><polygon class="cls-4" points="19.24 55.08 15.04 57.5 14.34 57.1 18.54 54.68 19.24 55.08"/><polygon class="cls-4" points="98.99 9.03 94.8 11.46 94.1 11.05 98.29 8.63 98.99 9.03"/><polygon class="cls-4" points="98.99 57.1 98.29 57.5 94.1 55.08 94.8 54.68 98.99 57.1"/><polygon class="cls-4" points="19.24 11.05 18.54 11.46 14.34 9.03 15.04 8.63 19.24 11.05"/><path class="cls-5" d="M14.69,24.64.7,16.56,0,17,14,25c7.33,4.23,7.33,11.12,0,15.35L0,48.47l.7.4,14-8.07C22.42,36.33,22.42,29.1,14.69,24.64Z"/><path class="cls-5" d="M84,0,70,8.08c-7.33,4.23-19.26,4.23-26.58,0L29.38,0l-.7.4,14,8.08c7.72,4.46,20.25,4.46,28,0L84.65.4Z"/><path class="cls-5" d="M99.34,25l14-8.08-.7-.4-14,8.08c-7.72,4.46-7.72,11.69,0,16.16l14,8.07.7-.4-14-8.08C92,36.16,92,29.27,99.34,25Z"/><path class="cls-2" d="M42.68,57.3,28.68,65v.35l.7.4,14-8.07c7.32-4.24,19.25-4.24,26.58,0l14,8.07.7-.4V65l-14-7.73C62.93,52.84,50.4,52.84,42.68,57.3Z"/><path class="cls-5" d="M42.68,57,28.68,65l.7.4,14-8.07c7.32-4.24,19.25-4.24,26.58,0l14,8.07.7-.4L70.66,57C62.93,52.49,50.4,52.49,42.68,57Z"/></g></g></svg>