<svg xmlns="http://www.w3.org/2000/svg" viewBox="0 0 57.37 36.97"><defs><style>.cls-1{fill:#e6e6e6;}.cls-2{fill:#3a4852;}.cls-3{fill:#62798a;}.cls-4{fill:#fff;}.cls-5{fill:#b3b3b3;}</style></defs><g id="Layer_2" data-name="Layer 2"><g id="Layer_1-2" data-name="Layer 1"><polygon class="cls-1" points="0 16.51 0.7 16.91 28.68 33.07 29.38 33.47 57.37 17.31 56.67 16.91 28.68 0.75 27.98 0.35 0 16.51"/><polygon class="cls-2" points="0 20 29.38 36.97 57.37 20.81 57.37 17.31 55.27 16.91 53.64 16.91 28.68 4.25 27.98 3.85 0 16.51 0 20"/><polygon class="cls-3" points="56.67 16.91 28.68 33.06 15.04 25.19 14.34 24.79 0.7 16.91 28.68 0.76 42.33 8.63 43.03 9.03 56.67 16.91"/><polygon class="cls-4" points="19.29 22.74 15.09 25.16 14.39 24.76 18.59 22.33 19.29 22.74"/><polygon class="cls-4" points="19.18 22.8 15.04 25.19 14.34 24.79 18.48 22.4 19.18 22.8"/><polygon class="cls-4" points="32.28 15.24 25.79 18.99 25.09 18.58 31.58 14.83 32.28 15.24"/><polygon class="cls-4" points="42.98 9.06 38.78 11.49 38.08 11.08 42.27 8.66 42.98 9.06"/><polygon class="cls-4" points="43.03 9.03 39.27 11.2 38.57 10.8 42.33 8.63 43.03 9.03"/><polygon class="cls-5" points="27.98 0.35 0 16.16 0 16.51 0.7 16.91 28.68 0.75 28.68 0.4 27.98 0.35"/><polygon class="cls-5" points="56.67 16.91 28.68 32.72 28.68 33.07 29.38 33.47 57.37 17.31 57.37 16.96 56.67 16.91"/><polygon class="cls-1" points="27.98 0 0 16.16 0.7 16.56 28.68 0.4 27.98 0"/><polygon class="cls-1" points="56.67 16.56 28.68 32.72 29.38 33.12 57.37 16.96 56.67 16.56"/></g></g></svg>