<svg xmlns="http://www.w3.org/2000/svg" width="366.59" height="214.04" viewBox="0 0 366.59 214.04"><defs><style>.cls-1{fill:#3f3d3d;}.cls-2{fill:#726965;}.cls-3{fill:#605854;}.cls-4{fill:#7f7673;}.cls-5{fill:#998f8a;}.cls-6{fill:#dcdbda;}.cls-7{fill:#dddcdb;}</style></defs><g id="Layer_2" data-name="Layer 2"><g id="content"><g id="_13" data-name="13"><polygon class="cls-1" points="263.99 90.63 260.1 87.48 351.5 34.77 310.57 11.05 221.93 63.27 160.89 60.03 149.74 64.79 57.09 12.05 15.8 35.77 110.39 90.38 112.34 125.18 15.96 180.96 56 204.42 147.53 151.78 157.65 149.29 198 150.04 211.13 148.54 307.93 204.42 348.31 180.96 255.68 127.29 263.99 90.63"/><polygon class="cls-2" points="91.33 119.13 107.4 128.92 107.52 126.81 93.06 118.18 91.33 119.13"/><polygon class="cls-3" points="107.4 128.92 113.55 125.58 113.55 123.64 107.52 126.81 107.4 128.92"/><polygon class="cls-2" points="0 171.42 16.07 181.04 16.19 179.1 0.04 169.46 0 171.42"/><polygon class="cls-2" points="56 204.42 72.07 214.04 72.19 212.1 56.04 202.46 56 204.42"/><polygon class="cls-2" points="147 151.71 163.07 161.33 163.19 159.4 147.04 149.75 147 151.71"/><polygon class="cls-3" points="72.07 214.04 169.55 157.58 169.55 154.96 72.23 211.04 72.07 214.04"/><polygon class="cls-4" points="97.2 120.65 107.4 128.92 78.89 145.29 68.14 136.91 97.2 120.65"/><polygon class="cls-3" points="16.07 181.04 78.89 145.29 78.89 143.35 16.19 179.1 16.07 181.04"/><polygon class="cls-5" points="107.52 126.81 113.59 123.64 97.44 114 92.4 117.17 62.77 133.71 0.04 169.46 16.19 179.1 78.92 143.35 68.22 136.96 97.22 120.66 107.52 126.81"/><polygon class="cls-4" points="147 151.71 157.43 155.96 129.09 172.65 120.17 167.33 147 151.71"/><polygon class="cls-6" points="89.27 151.06 96.1 154.96 124.18 138.43 117.74 134.69 89.27 151.06"/><polygon class="cls-6" points="100.5 157.55 107.29 161.47 135.44 144.87 129.09 141.07 100.5 157.55"/><polygon class="cls-6" points="78.89 145.11 85.76 149.08 113.78 132.52 107.4 128.75 78.89 145.11"/><polygon class="cls-6" points="111.96 164.17 118.78 168.21 147 151.71 140.54 147.81 111.96 164.17"/><polygon class="cls-5" points="153.44 146 147.04 149.75 157.43 155.96 129.07 172.64 118.44 166.29 56.04 202.46 72.19 212.1 134.59 175.93 164.4 158.35 169.59 155.64 153.44 146"/><polygon class="cls-2" points="271.36 118.04 255.15 127.83 255.03 125.72 271.31 116.08 271.36 118.04"/><polygon class="cls-2" points="255.38 127.83 249.55 124.58 249.55 122.64 255.37 125.72 255.38 127.83"/><polygon class="cls-3" points="364.4 171.42 348.2 181.04 348.08 179.1 364.36 169.46 364.4 171.42"/><polygon class="cls-3" points="307.93 204.42 291.68 214.04 291.6 211.26 307.88 202.46 307.93 204.42"/><polygon class="cls-2" points="215.33 150.74 199.12 160.36 199 158.42 215.29 148.78 215.33 150.74"/><polygon class="cls-2" points="291.68 214.04 180.78 149.73 180.78 147.79 292.4 205.71 291.68 214.04"/><polygon class="cls-4" points="265.44 119.56 255.15 127.83 283.91 144.19 294.74 135.82 265.44 119.56"/><polygon class="cls-3" points="348.21 181.04 283.93 144.19 283.93 142.26 348.1 179.1 348.21 181.04"/><polygon class="cls-5" points="255.37 125.72 249.55 122.64 265.34 113 271.31 116.08 300.16 132.62 364.36 169.46 348.08 179.1 283.87 142.26 294.67 135.87 265.42 119.57 255.37 125.72"/><polygon class="cls-4" points="215.33 150.74 204.81 154.99 233.39 171.68 242.38 166.36 215.33 150.74"/><polygon class="cls-6" points="273.26 150.26 266.37 154.16 238.04 137.64 244.54 133.9 273.26 150.26"/><polygon class="cls-6" points="261.93 156.76 255.08 160.68 226.69 144.07 233.1 140.28 261.93 156.76"/><polygon class="cls-6" points="284.06 144.07 277.13 148.05 248.87 131.48 255.3 127.71 284.06 144.07"/><polygon class="cls-6" points="250.67 163.2 243.79 167.24 215.33 150.74 221.84 146.84 250.67 163.2"/><polygon class="cls-5" points="210.87 146 215.29 148.78 204.81 154.99 233.41 171.66 244.13 165.32 307.88 202.46 291.6 212.1 227.85 174.96 197.78 157.37 194.59 155.64 210.87 146"/><polygon class="cls-2" points="136.05 38.28 119.84 48.07 119.72 45.97 136.01 36.33 136.05 38.28"/><polygon class="cls-2" points="120.07 48.07 56.55 12.58 56.55 10.64 120.07 45.97 120.07 48.07"/><polygon class="cls-2" points="113.93 92.42 97.68 102.04 97.6 99.26 113.88 90.46 113.93 92.42"/><polygon class="cls-2" points="78.75 71.72 62.54 81.34 62.42 79.41 78.71 69.76 78.75 71.72"/><polygon class="cls-2" points="97.68 102.04 0.89 45.77 0.89 43.46 97.56 97.85 97.68 102.04"/><polygon class="cls-4" points="130.13 39.8 119.84 48.07 148.6 64.44 159.44 56.07 130.13 39.8"/><polygon class="cls-2" points="155.21 68.04 148.63 64.44 148.63 62.5 155.09 66.1 155.21 68.04"/><polygon class="cls-5" points="120.07 45.97 56.55 10.64 72.34 1 136.01 36.33 164.85 52.86 171.36 56.46 155.08 66.1 148.57 62.5 159.36 56.11 130.11 39.82 120.07 45.97"/><polygon class="cls-4" points="78.75 71.72 68.23 75.97 96.81 92.66 105.8 87.34 78.75 71.72"/><polygon class="cls-6" points="137.11 70.93 130.22 74.83 101.9 58.3 108.39 54.56 137.11 70.93"/><polygon class="cls-6" points="125.78 77.42 118.94 81.34 90.54 64.74 96.95 60.94 125.78 77.42"/><polygon class="cls-6" points="148.6 64.44 141.67 68.41 113.41 51.85 119.84 48.07 148.6 64.44"/><polygon class="cls-6" points="114.07 84.18 107.2 88.22 78.74 71.72 85.25 67.82 114.07 84.18"/><polygon class="cls-5" points="16.87 34 78.71 69.76 68.23 75.97 96.83 92.65 107.06 86.59 113.88 90.46 98.15 99.78 91.27 95.94 61.2 78.36 0.89 43.46 16.87 34"/><polygon class="cls-2" points="232.17 38.46 248.24 48.25 248.36 46.14 232.21 36.5 232.17 38.46"/><polygon class="cls-3" points="248.24 48.25 311.55 11.58 311.55 9.64 248.36 46.14 248.24 48.25"/><polygon class="cls-2" points="288.03 70.99 304.1 80.61 304.22 78.68 288.07 69.03 288.03 70.99"/><polygon class="cls-3" points="250.37 111.9 366.59 44.58 366.59 42.64 250.53 108.9 250.37 111.9"/><polygon class="cls-4" points="238.03 39.98 248.24 48.25 219.72 64.61 208.98 56.24 238.03 39.98"/><polygon class="cls-3" points="214.07 68.04 219.72 64.61 219.72 62.68 214.19 66.1 214.07 68.04"/><polygon class="cls-5" points="248.36 46.14 311.59 9.64 295.44 0 232.21 36.5 203.61 53.04 196.4 57.31 214.19 66.1 219.76 62.68 209.06 56.29 238.06 39.99 248.36 46.14"/><polygon class="cls-4" points="288.03 70.99 298.47 75.24 270.12 91.93 261.21 86.61 288.03 70.99"/><polygon class="cls-6" points="230.44 70.34 237.27 74.24 265.35 57.71 258.91 53.97 230.44 70.34"/><polygon class="cls-6" points="241.68 76.69 248.46 80.61 276.61 64.01 270.26 60.21 241.68 76.69"/><polygon class="cls-6" points="219.72 64.49 226.6 68.46 254.62 51.9 248.24 48.12 219.72 64.49"/><polygon class="cls-6" points="253.13 83.32 259.95 87.36 288.17 70.86 281.71 66.96 253.13 83.32"/><polygon class="cls-5" points="350.44 33 288.07 69.03 298.47 75.24 270.1 91.92 259.47 85.57 253.04 89.46 269.19 99.1 304.26 79 308.32 76.57 366.59 42.64 350.44 33"/><path class="cls-3" d="M155.21,68s15.28,9.83,30.19,9.81S214.07,68,214.07,68l.12-1.94s-22.06-3.7-29.37-3.62c-6.11.06-13.37-4-13.37-4L155.1,66.1Z"/><path class="cls-5" d="M155.08,66.1s15.63,10.19,30.54,10.17,29.24-10.68,29.24-10.68L196.4,57.31a22.46,22.46,0,0,1-11.77,3.17c-6.1.06-13.27-4-13.27-4l-7.77.75Z"/><path class="cls-3" d="M164.9,146.35s1.81-8.1,16.72-8.08,12.93,17.37,12.93,17.37l.88,2.45A26.31,26.31,0,0,0,182.16,154a24.71,24.71,0,0,0-12.61,3.54v-1.94Z"/><path class="cls-5" d="M153.44,146s13.27-9.75,28.18-9.73S210.87,146,210.87,146l-16.28,9.64a23.43,23.43,0,0,0-12.43-3.6,24.19,24.19,0,0,0-12.57,3.6l-10-.41Z"/><path class="cls-2" d="M96.41,101.3s8.91,5,4.79,10c-3.51,4.23,14.37-4.25,14.45-4.6s-3.08-7.44-3.08-7.44-4-2.89-6.17-3S96.41,101.3,96.41,101.3Z"/><path class="cls-3" d="M113.5,125.65s12-7.29,12.92-14.12-.39-7.89-.39-7.89l-12.44,20L113,124Z"/><path class="cls-5" d="M97.44,114s5.75-2.9,5.73-6.72c0-4.57-5-7.5-5-7.5l15.73-9.32s13.31,6.67,12.46,16.67-12.75,16.51-12.75,16.51Z"/><path class="cls-2" d="M249.55,124.58s-6-3.92-8-8.67a23.65,23.65,0,0,1-1.47-10.13L251.15,101l-1.6,21.6Z"/><path class="cls-3" d="M269.07,101s-6.86,3.72-6.67,7.47,1.5,5,1.5,5L256,108.48l3.25-8.38a26.5,26.5,0,0,1,4-1c1.33-.12,6.45-.26,6.45-.26Z"/><path class="cls-5" d="M265.81,113.26a7.68,7.68,0,0,1-3.53-7.21c.4-3.42,7.36-7.21,7.36-7.21L254,88.91s-14.76,8.45-13.91,18.44,9.46,15.29,9.46,15.29Z"/><polygon class="cls-7" points="327.88 189.6 311.46 180.12 309.42 181.33 325.91 190.85 327.88 189.6"/><polygon class="cls-7" points="302.56 175.05 286.14 165.57 284.12 166.79 300.59 176.31 302.56 175.05"/><polygon class="cls-7" points="83.2 47.56 66.78 38.08 64.74 39.3 81.23 48.82 83.2 47.56"/><polygon class="cls-7" points="57.88 33.02 41.45 23.54 39.43 24.76 55.91 34.28 57.88 33.02"/><polygon class="cls-7" points="37.09 188.08 53.61 178.55 55.67 179.75 39.16 189.29 37.09 188.08"/><polygon class="cls-7" points="63.81 172.81 80.28 163.33 82.32 164.54 65.79 174.06 63.81 172.81"/><polygon class="cls-7" points="281.21 47.61 297.72 38.08 299.79 39.28 283.27 48.82 281.21 47.61"/><polygon class="cls-7" points="307.93 32.34 324.39 22.86 326.43 24.07 309.9 33.59 307.93 32.34"/></g></g></g></svg>