<svg xmlns="http://www.w3.org/2000/svg" width="30.1" height="52.8675" viewBox="0 0 86 151.05"><defs><style>.cls-1{isolation:isolate;}.cls-2{fill:#405a72;}.cls-3{fill:#0b151a;}.cls-4{fill:#1e3a47;}.cls-5{fill:#162b35;}.cls-5,.cls-9{mix-blend-mode:multiply;opacity:0.5;}.cls-6{fill:#b1d8f2;}.cls-7{fill:#fff;}.cls-8,.cls-9{fill:#ffb294;}</style></defs><g class="cls-1"><g id="Layer_2" data-name="Layer 2"><g id="Layer_1-2" data-name="Layer 1"><polygon points="79.48 9.92 77.38 8.08 77.38 1.64 77.69 1.82 77.69 7.72 79.57 9.51 79.48 9.92"/><path class="cls-2" d="M79.85,13.67c0-.64-4.15-2.59-5.12-1.05L66.5,27.09a57.84,57.84,0,0,1-15.76,7.07l.92,5.78L58,47.77c.49-4.42,9.22-9,13.56-13.61A114,114,0,0,0,79.85,13.67Z"/><path d="M39.37,127.81c-.64.85-.64,2.8-.49,5,.6,2.23,2.71,2.05,4.51,2.34,3.48.54,5.22,3.16,9.85,3.15,2.75,0,4.59-.59,5.16-2.34A3,3,0,0,0,57,133.52s-6.3-2.82-6.47-2.93a32.39,32.39,0,0,1-3-2.4c-.06-.21-1.09-5-1.09-5h-6.8Z"/><path d="M36,138.37c-.63,2-.75,2.59-.49,4.07a23,23,0,0,1,.93,2.23c.38,1.35.32,3.59,2.32,4.94,2.39,1.88,7,2,8.45,0a10.52,10.52,0,0,0-1.86-4.89l-2.34-4.35.15-4.08-6.72-1.47Z"/><path class="cls-3" d="M47.29,75.84v27.27c-2.19,7.9-6.42,15.32-7.09,23.22,0,3.33,6.74,4.06,8.44,1.92.67-6.11,5.84-14.42,9-24.07,2.08-9.74,3.8-19.85,3.22-28Z"/><path class="cls-4" d="M60.65,76.9C60.84,79.67,57,87,52.7,90.27c-.2,5.92-1,16.19-2,22.87-3.15,9.66-6,18.92-6.67,25-1.13,1.42-4.52,2-6.64,1.19a2.4,2.4,0,0,1-.42-.18l-.14-.07a2.19,2.19,0,0,1-1.25-2,90.7,90.7,0,0,1,3.67-23.53l-.66-35.1,0-1Z"/><path class="cls-5" d="M43.31,114.37c-4.14,5-5,15-5.88,25l-.42-.18-.14-.07a2.19,2.19,0,0,1-1.25-2,90.7,90.7,0,0,1,3.67-23.53l-.66-35.1,4.12,2.81C40.18,90.09,42.22,102,43.31,114.37Z"/><path class="cls-2" d="M60.43,82.27c-1.59.28-2-.79-3.81-3.83-1.5,4.1-5,8.72-6.18,9.25-1.43.83-5.41,2.3-7.7,1a16.31,16.31,0,0,1-2.23-1.59,13.19,13.19,0,0,1-3.72-4.94c-.57-2.08.6-8.33.35-13.87a62.56,62.56,0,0,0-1.36-7.12,59.78,59.78,0,0,0-4.67-10.06c.64-1.7-1.83-5.35-.27-6,.52-.24,1-.48,1.5-.75a29.11,29.11,0,0,0,8-6.84q5.19-1.59,10.4-3.29c3.13,1.43,5.55,4.77,7.15,9.23,1.1-.06,4.87,27.16,5,28.87C63.27,76.63,67,81.8,60.43,82.27Z"/><path class="cls-6" d="M47.41,43.39q-3.82.87-7.65,1.68A66.56,66.56,0,0,1,54.4,64.29c3.36-8.31,3.34-17.37-3.17-24.86C50,40.8,48.69,42.12,47.41,43.39Z"/><path class="cls-7" d="M41,36.14c-1,1.43-2,2.8-3.07,4.12-.09,5.85,5.62,7,9.64,9.87q.48-2.79.83-5.67c1.71,0,3.43-.08,5.14-.1a83.25,83.25,0,0,0-4.27-8.56C46.52,35.87,43.77,36,41,36.14Z"/><path class="cls-4" d="M39.13,38.71c-2.3,2.91.77,6.15,5.19,9.41,4.12,2.74,10.24,10.71,10.43,17.23C52,59,45.39,52.33,41.83,51c.15-.7.3-1.41.44-2.13l-2,.75a14.79,14.79,0,0,1-5-7.24A27.21,27.21,0,0,1,39.13,38.71Z"/><path class="cls-4" d="M46.27,35.72c6.59,2.23,12.53,20.92,8.21,29,3.78-4.85,5.28-13.27.77-24.9l-1.39-.45c0-.45,0-.91,0-1.37-1.71-1.22-3.47-2.36-5.26-3.44Z"/><path class="cls-8" d="M49.28,42.72c-.13.54-.47,1.52-.88,1.74-3.89,2-8.88-2.15-9.34-4.63a8.39,8.39,0,0,0-.89-3.36c-1.21-1.47-3.32-3-2.5-3.13,2.16-.21,9.64,2.31,11.79,2.15a1.85,1.85,0,0,0-.17,1.73C48,39,49.68,41.1,49.28,42.72Z"/><path class="cls-9" d="M47.83,42c-3.59,1.35-8-4.59-8.07-4.54,2.47-.47,5.65-1.57,8.11-2C49.14,38.69,49.22,41.46,47.83,42Z"/><path class="cls-5" d="M41.27,64.21c.09-3.51-4.57-10.47-4.68-10.36-1.78-1-2.35.24-4.21-.62,2.81,5.33,3.85,8,4.76,15,.25,5.54-.92,11.79-.35,13.87a13.19,13.19,0,0,0,3.72,4.94,16.31,16.31,0,0,0,2.23,1.59s-.24-9-.44-14.67A69.67,69.67,0,0,0,41.27,64.21Z"/><path class="cls-2" d="M24.32,45,12.56,39.43c-2-.72-3.47,3-1.3,5.07a56.93,56.93,0,0,0,11.45,8.73c5,1.22,10.46.63,15.46,3L34.8,42.73C32.51,44.5,28.81,45.1,24.32,45Z"/><path class="cls-8" d="M39.14,36.78A8.5,8.5,0,0,0,42.05,39c1.37.42,5.07-.27,5.07-.27a2,2,0,0,0,2.15-2.41l-1.66-6.25-.54-1.38s-2-3.64-3.94-4.4a7.32,7.32,0,0,0-6.93.77C34,26.71,32.62,29,33.58,31.66,35.91,38.28,39.14,36.78,39.14,36.78Z"/><path d="M38.83,38.28v-1a1,1,0,0,0,0-1l-1.67-2.54c.38-.41,1.68-1.47.79-5.19,3.59-.49,6.07-3.5,8.18-1.37.84-.93-1.4-3.46-2.6-4s-3.75-.81-6.72.91-4.06,3.71-3.85,7S37.35,37.88,38.83,38.28Z"/><path class="cls-8" d="M35.46,33.27a1.36,1.36,0,0,0,.22,1.14,5.26,5.26,0,0,0,.76,1.1,2.19,2.19,0,0,0,1.13.67,1,1,0,0,0,1.09-.44,1.18,1.18,0,0,0-.11-.93,4.18,4.18,0,0,0-1.25-1.66C36.79,32.82,35.78,32.51,35.46,33.27Z"/><path class="cls-8" d="M13.33,41.56c-.21.88-1.73,2.15-5.41,1.55L5.23,43c-1.63-.14-1.39-.88-.5-.69l-1.52-.13c-1-.13-1.33-1-.36-1l-1.56-.49C.18,40.4.11,39.55,1.13,39.63h.32L.6,39.09c-.92-.58-.73-1.54.22-1.14,0,0,3.61,1.95,5,.95.94-.65-1.37-2.73-1.37-2.73-.91-1,0-1.65.72-.86a12.53,12.53,0,0,0,3.17,2C9.9,37.81,13.72,40,13.33,41.56Z"/><path class="cls-8" d="M75.41,12.67l.38-1.13L75,7.83l-.28-4.59c-.08-.81.82-.9,1.05,0,0,0,.42,2.94,1,3.12a7.47,7.47,0,0,0,2-3.23c.34-.85-1.36-.66-1.85-1.45-.26-.5.19-1.09,1.69-.62l1.25.46a1,1,0,0,1,.61,1L80.27,5l1.86-2.6,1-1.74c.66-1,1.42-.79,1.06.41l-1,2.28L81.92,5.76l1.75-1.64L85,2.45c.73-.83,1.37-.41.83.58L84.47,5.2,83,7v.42l1.92-2c.75-.7,1.24-.3.68.63L83.46,8.77l-2.31,3.29-2,1.47S79,13.9,79,14C78.22,15.1,75.21,13.52,75.41,12.67Z"/><polygon points="73.27 13.71 71.16 11.87 71.16 5.43 71.47 5.61 71.47 11.51 73.35 13.3 73.27 13.71"/><path d="M73.36,3.86A3,3,0,0,0,70.68,4c-.79.46-.88,1.15-.19,1.54a3,3,0,0,0,2.68-.11C74,5,74.05,4.25,73.36,3.86Z"/><path d="M77.36,1.55a3,3,0,0,0-2.68.11c-.79.46-.88,1.15-.19,1.55a3,3,0,0,0,2.67-.11C78,2.64,78,2,77.36,1.55Z"/><path d="M72.6,3.93a3.54,3.54,0,0,1,1.82-1.37l-.1-.18a4,4,0,0,0-2,1.51Z"/><path class="cls-8" d="M77.84,5.09h3.92V2.88L80.27,5l.25-2.45a1,1,0,0,0-.61-1l-1.25-.46c-1.5-.47-2,.11-1.69.62.49.79,2.19.6,1.85,1.45A12.19,12.19,0,0,1,77.84,5.09Z"/><path d="M8.22,33.92l-.46.26a8,8,0,0,0-3.89,6.21v69.39a.85.85,0,0,0,1.69,0V40.39a6.4,6.4,0,0,1,3.05-4.75l.54-.31A.85.85,0,0,0,8.22,33.92Z"/><path class="cls-8" d="M8.38,37.27a12.53,12.53,0,0,1-3.17-2c-.77-.79-1.63-.09-.72.86A6,6,0,0,1,6.06,38.3l.61.57a31.07,31.07,0,0,1,3.63,4.37c2-.14,2.87-1,3-1.68C13.72,40,9.9,37.81,8.38,37.27Z"/></g></g></g></svg>