<svg xmlns="http://www.w3.org/2000/svg" width="21.9975" height="39.641" viewBox="0 0 62.85 113.26"><defs><style>.cls-1{isolation:isolate;}.cls-2{fill:#172935;}.cls-3,.cls-4{fill:#1e3a47;}.cls-3,.cls-8,.cls-9{mix-blend-mode:multiply;}.cls-3{opacity:0.75;}.cls-5{fill:#fce4bd;}.cls-6,.cls-8{fill:#ffb294;}.cls-7{fill:#eb3b58;}.cls-8{opacity:0.5;}.cls-9{fill:#89131c;opacity:0.3;}</style></defs><g class="cls-1"><g id="Layer_2" data-name="Layer 2"><g id="Layer_1-2" data-name="Layer 1"><path d="M31.48,8.07l-.32-.22.1-.86c.06-.49.5-.63,1-.32l5.28,3.05V10L32.29,7c-.36-.2-.66-.11-.7.23Z"/><path d="M61.52,106a1,1,0,0,1-1-1V46.28a7.31,7.31,0,0,0-3.5-5.45L54.6,39.41a1,1,0,0,1-.36-1.32,1,1,0,0,1,1.33-.36L58,39.14c2.51,1.45,4.48,4.59,4.48,7.14v58.79A1,1,0,0,1,61.52,106Z"/><path d="M1.76,76.85A6.16,6.16,0,0,0,0,80.5a5.89,5.89,0,0,0,2.62,3.14l2.92,4A7.51,7.51,0,0,0,8.87,89.9,9.93,9.93,0,0,0,13,90a5.78,5.78,0,0,0,2.08-1,1.88,1.88,0,0,0,.1-2.69,15.2,15.2,0,0,0-3.05-2.3L9.29,80.55,9.17,77,4,74.51Z"/><path class="cls-2" d="M33.41,44.74c0,6.5-1.95,13.67-5.09,21.26-.07.16-.13.32-.21.47a14.15,14.15,0,0,1-4.68,5c-4.17,3-9.8,5.7-13.22,9.37-3,1.12-8.42-1.13-8.42-4.41a45.12,45.12,0,0,1,5.34-6.47,59.7,59.7,0,0,1,9.08-7l3.79-14Z"/><path class="cls-3" d="M33.41,44.74c.07,6.41-2,13.64-5.09,21.26-.07.16-.13.32-.21.47l-4.68,5-4.27-3.85-12,2.34a59.7,59.7,0,0,1,9.08-7l3.79-14Z"/><path d="M36.1,104.1a12,12,0,0,0,.85,5.21,4.2,4.2,0,0,0,2,1.32,5.07,5.07,0,0,0,2.47,2.31c2.23.85,6-.07,7.7-1.65a1.69,1.69,0,0,0,.15-2.28,8.26,8.26,0,0,0-3.22-2.54l-3.43-3.33-1-3.8-5.83,1.39Z"/><path class="cls-4" d="M43.42,102.3c-1.07,2.42-3.6,3.3-7.73,2.46q-.94-2.13-1.84-4.31c-.39-1-.78-1.92-1.14-2.88a177.49,177.49,0,0,1-6-17.91l-9.28-20.6L17.36,59c-5.44-3.43-5.65-7.91-5.06-12.2l-.47-2.06-.71-3.11L10,36.77l-.17-1.64,23.66,6.43c.35,4.56-1.4,8.76-4.19,12.45l2.06,5.32.08.2c.8,2.13,1.55,4.26,2.23,6.39a106.41,106.41,0,0,1,3,11.19Z"/><path class="cls-3" d="M32.71,97.57a177.49,177.49,0,0,1-6-17.91l-9.28-20.6L17.36,59c-5.44-3.43-5.65-7.91-5.06-12.2l-.47-2.06,12.5,6.18c-2.79,6-.23,16.37,3.86,27.57Z"/><path class="cls-5" d="M35.58,12.14c2.48.62,6.1,7.7,10.08,13.76A67.85,67.85,0,0,0,58.94,37c1.35,1.49.28,6.62-3.79,5-6.34-3.37-11.76-4.53-14.46-8.26l-6-7.82Z"/><path class="cls-6" d="M62.21,44.51l.64-1.95-1-3.22-1.58-1.19-1.8-.5c-1.18.19-1.77,1-1.78,2.52l.39,2.29L59,44.25c.82,1.33,1.33.84,1.23.09l-1-1.8,1.15-.47,1,.37Z"/><path class="cls-7" d="M34.77,47.18c-2.64,2-7.21,3.63-12.51,3.94-3.1.19-5.92-1.85-7.92-2.65-1.08-.42-.11-2.31,0-3.4.14-1.24.24-2.79.33-3.58l.06-3.23.08-4c.79-12.09-1.08-14,1.7-16.51,4-3.6,8.14-5.59,11.51-5.59l6.66.61c2,1.89,3.55,6,3.7,9.64,0,0-2.54,15.7-2.34,19.27,0,.52,0,2.06,0,3.12A3,3,0,0,1,34.77,47.18Z"/><path class="cls-6" d="M32.66,19.6a1.7,1.7,0,0,1-1,.95c-4.08,1.21-7.43-3.45-7-6.2s.6-4.35.6-4.35l7.9,1.94s.08.74.13,1.79C33.42,15.51,33.39,18.17,32.66,19.6Z"/><path class="cls-8" d="M32.66,19.6a2.24,2.24,0,0,1-1.29.43c-3.73,0-4.92-7-4.92-7l6.89.73C33.42,15.51,33.39,18.17,32.66,19.6Z"/><path class="cls-6" d="M25.93,11.37s.85,3.41,2.38,4.89a9.16,9.16,0,0,0,4.9,2.26,2.45,2.45,0,0,0,2.26-.74c.6-.7,1-7.21,1-7.21a19.53,19.53,0,0,0-.36-4.67C35.64,3.84,33.94-.44,27.94.38a5.31,5.31,0,0,0-4.86,4.78c-.3,2,1.32,5.63,1.32,5.63Z"/><path d="M24.5,11.62l2.69,1.11L27.4,11c0-.82.29-2,1.11-1.94,1.36.1,3.85.56,5.86-.43a4,4,0,0,0,2.25-2.22C37.58,2.74,32.7-.12,29,0a6.67,6.67,0,0,0-6.72,6A6.34,6.34,0,0,0,24.5,11.62Z"/><path class="cls-6" d="M25,8.91a1,1,0,0,0-1.2.18.93.93,0,0,0-.15.71,2.49,2.49,0,0,0,.25.69,12.5,12.5,0,0,0,.63,1.13,1.38,1.38,0,0,0,.75.68c.35.09.77.33,1,0A2.91,2.91,0,0,0,25,8.91Z"/><path class="cls-9" d="M24.33,50.93c-3.07.21-3.64.52-9.07-1.83-1.13-.49-1.36-3.26-1.39-4.49,0-1.41-.16-3.17-.19-4.06l-.4-3.67,8.44-8.38C20.41,37,20.19,45.66,24.33,50.93Z"/><path class="cls-6" d="M10.52,54.17l.5,3.07a9.38,9.38,0,0,0-1.09,4.57c.15.74.56,1.1,1.2,1.08L11.54,64a1,1,0,0,0,1.35.17,1.77,1.77,0,0,0,1.77.47l1.14.79,2.27.6c.78-.08,1.08-.7.28-1.12l-1.91-1.2-.06-2L17.5,61,18,62l.44.88c.46.82,1.28.78,1.25.08l-.45-2.52A8.14,8.14,0,0,0,16,57l-.88-3.73Z"/><path class="cls-5" d="M16.38,18.25C12.89,21.7,7.86,32.9,7.72,40.48L10.57,56.9c.87,1.75,4.26,1.55,6-.52L16.19,41.7l5.53-13.2C22.73,22.71,18.61,17.24,16.38,18.25Z"/><polygon points="26.64 9.74 26.64 10.06 31.7 12.98 31.7 12.66 26.64 9.74"/><path d="M33.94,12a2.69,2.69,0,0,1-1.31,2c-.72.42-1.3.17-1.3-.55a2.68,2.68,0,0,1,1.3-2.05C33.35,11,33.94,11.25,33.94,12Z"/><path d="M37.57,9.87a2.73,2.73,0,0,1-1.31,2.06c-.72.41-1.3.17-1.3-.55a2.71,2.71,0,0,1,1.3-2.06C37,8.91,37.57,9.15,37.57,9.87Z"/><path d="M35.41,10.81a3.19,3.19,0,0,0-1.79,1l-.12-.16a3.62,3.62,0,0,1,2-1.16Z"/></g></g></g></svg>