<svg xmlns="http://www.w3.org/2000/svg" width="154.59" height="92.04" viewBox="0 0 154.59 92.04"><defs><style>.cls-1{fill:#726965;}.cls-2{fill:#3f3d3d;}.cls-3{fill:#998f8a;}.cls-4{fill:#605854;}.cls-5{fill:#dddcdb;}</style></defs><g id="Layer_2" data-name="Layer 2"><g id="content"><g id="_15" data-name="15"><polygon class="cls-1" points="56 82.42 72.07 92.04 72.19 90.1 56.04 80.46 56 82.42"/><polygon class="cls-2" points="15.96 58.96 98.55 11.58 138.5 34.77 56 82.42 15.96 58.96"/><polygon class="cls-3" points="56.04 80.46 138.44 33 154.59 42.64 72.19 90.1 56.04 80.46"/><polygon class="cls-4" points="72.07 92.04 154.55 44.58 154.55 42.64 72.19 90.1 72.07 92.04"/><polygon class="cls-1" points="0 49.42 16.07 59.04 16.19 57.1 0.04 47.46 0 49.42"/><polygon class="cls-3" points="0.04 47.46 82.44 0 98.59 9.64 16.19 57.1 0.04 47.46"/><polygon class="cls-4" points="16.07 59.04 98.55 11.58 98.55 9.64 16.19 57.1 16.07 59.04"/><polygon class="cls-1" points="56 82.42 72.07 92.04 72.19 90.1 56.04 80.46 56 82.42"/><polygon class="cls-5" points="41.81 66 58.32 56.48 60.39 57.67 43.87 67.21 41.81 66"/><polygon class="cls-5" points="68.53 50.73 84.99 41.25 87.03 42.47 70.5 51.99 68.53 50.73"/><polygon class="cls-5" points="95.08 35.44 111.54 25.96 113.57 27.18 97.05 36.7 95.08 35.44"/></g></g></g></svg>